<svg xmlns="http://www.w3.org/2000/svg" id="Capa_1" viewBox="0 0 283.46 283.46"><defs><style>      .st0 {        fill: #f5b1c9;      }      .st1 {        fill: #fefdfd;      }      .st2 {        fill: #f5b2c9;      }      .st3 {        fill: #f5b1c8;      }      .st4 {        fill: #fdf7f9;      }      .st5 {        fill: #f5afc7;      }      .st6, .st7 {        fill: #1d1d1b;      }      .st8 {        fill: #f5b3ca;      }      .st9 {        fill: #fef6f8;      }      .st10 {        fill: #fefbfc;      }      .st11 {        fill: #fbe5ed;      }      .st12 {        fill: #fffeff;      }      .st13 {        fill: none;      }      .st14 {        fill: #f7bfd2;      }      .st15 {        fill: #fcfafa;      }      .st16 {        fill: #fefcfd;      }      .st17 {        fill: #f5b4ca;      }      .st18 {        fill: #f5b1c7;      }      .st19 {        fill: #fdfafb;      }      .st7 {        stroke: #1d1d1b;        stroke-miterlimit: 10;      }      .st20 {        fill: #fefafb;      }      .st21 {        fill: #fdf6f9;      }      .st22 {        fill: #fefefe;      }      .st23 {        fill: #fef8f9;      }      .st24 {        fill: #f5b0c8;      }      .st25 {        fill: #fbe3ec;      }      .st26 {        fill: #fdf9fa;      }      .st27 {        fill: #f7c1d3;      }    </style></defs><path class="st13" d="M234.4,158.83v45.1H49.06v-124.4h185.34v77.83c-.41.17-.75-.23-1.02-1.2-2.12-1.57-4.51-2.81-7.18-3.72-2.4-1.12-5.22-2.51-5.86-5.31-.02-2.6-.41-5.16-1.17-7.67-2.91-7.52-16.43-7.8-23.22-7.73-1.6-.88.37-1.48,1.31-1.75,3.37-.94,6.65-1.33,10.15-1.09-6.23-1.64-12.88-1.69-18.78,1.15-.73.2-.68-.25-.51-.97,5.46-8.4,5.51-23.97-7.57-24.05-5.01-.03-8.66,2.75-11.72,6.49-8.99,11-7.66,28.15,9.78,25.96.25.03.45.08.49.19.46,1.35-3.78,2.56-4.83,2.44,5.32,4.53,8.11,13.09,8.08,19.95-.03,5.58-1.91,9.07-5.01,13.33l2.41-.75c.48,0,.69.36.57.8l-2.26,4.16c1.05-.28,2.03-.73,2.94-1.37l.51.19c.05-.48.49-.87,1.31-1.16l4.6-3.75c1.71-1.63,2.62-1.03,2.73,1.8l.62,2.09c.63-3.8,3.58-6.65,6.77-8.55-1.13.2-2.24.5-3.33.89-1.67-.3.9-2.79,1.54-3.4,2.86-2.72,5.87-5.1,9.83-5.93-.67-.21-1.01-.77-.33-1.19,1.73-1.05,3.56-1.9,5.48-2.54.23-1.12,1-2.23,2.25-1.96l-.18-.42c.84-1.68.03-3.93-.59-5.59.17-.15.24-.31.15-.49l-.55-.25c-.52-1.32-1.17-2.57-1.9-3.78l.14-.59-.77-.5c-1.58-2.63-3.58-5.01-6.07-6.77-.11-.53-.12-.74.43-.88.73-.19,3.92.42,4.88.64,8.2,1.85,9.33,5.14,10,12.75.46,3.17,3.08,4.97,5.91,6l3.45,1.15c.34.25.27.56.06.9l-2.27,1.6c-.95,1.72,1.04,3.61,2.33,4.58,3.73,1.6,3.22,3.44.1,5.37-5.19,3.22-10.63,3.65-16.62,3.21,2.74.29,5.49.54,8.24.74,1.92,1.07-.68,1.64-1.98,1.75l-6.44.58c-3.48.34-8.74,1.45-8.13,5.9.76,2.7-.77,1.92-2.42.69-1.65-1.45-1.93-1.43-.56.24.55.67,5.46,3.82,5.73,3.46-.21-1.38.16-3.34,1.87-2.14-1.45-3.47,2.68-5.79,5.53-6.46l6.02-1.24c4.73-.92,9.06-4.16,11.93-7.9.54-2.34,1.31-4.19,2.63-6.28l.49-.19Z"></path><path class="st7" d="M181.51,176.45c-1.33.77-2.57,1.67-4.2,1.68l2.73-5.03c-.29-.27-3.36,1.24-3.36.73.59-1.84,2.12-3.07,3.05-4.71,3.42-6.03,2.41-13.76.05-19.99-1.33-3.5-3.2-7.03-6.45-9.08-.09-.47.21-.29.52-.31,2.04-.14,3.57-.45,5.15-1.89-14.28,2.26-19.44-9.31-13.82-21.27,2.41-5.13,7.71-11.33,13.72-11.88,11.8-1.08,15.16,9.54,12.07,19.2-.67,2.1-1.81,3.98-2.73,5.97,6.72-3.58,14.8-2.93,21.83-.63.05.36-.5.22-.73.21-4.19-.34-8.64-.29-12.66,1.2-.39.14-.94.23-1.1.69,5.65-.1,12.1.1,17.42,2.21s6.86,4.49,7.53,9.88c.25,1.99-.29,3.63,1.08,5.42,2.61,3.4,10.7,4.77,12.26,7.26.24.39.18.93.54,1.24v1.47c-.33,1.36-1.45,2.46-1.93,3.63-.36.89-.26,1.48-.48,2.25-.63,2.22-4.66,5.12-6.55,6.46-4.11,2.91-8.9,2.52-13.34,4.08-2.73.96-5.96,3.75-3.1,6.44-.54.25-2.13-.96-2.3-.84-.56.97-.55,1.73,0,2.72-.5.36-4.85-2.06-5.53-2.55-1.34-.98-2.49-2.47-2.66-4.16,1.4,1.32,2.84,2.57,4.61,3.36-.9-2.74-.43-4.89,2.17-6.33,4.24-2.34,10.24-1.29,14.83-2.69-.08-.39-.41-.38-.73-.42-3.79-.52-7.14-.04-10.87-1.52-.22-.09-.63-.06-.58-.36,6.48.78,15.02,1.08,20.43-3.18,3.68-2.9,1.23-2.9-.89-4.49-1.33-1-3.39-3.38-2.11-5.02l2.52-1.78c-3.71-1.12-8.48-2.43-9.59-6.67-1.24-4.71.09-8.84-5.03-11.54-2.96-1.56-6.63-2.17-9.93-2.34.44.52,1.17.9,1.68,1.36,2.3,2.06,3.49,3.8,5.03,6.4l-.32.35c-2.06-1.13-7.57.15-3.61,2.48,1.99.39,3.96.92,5.89,1.61.03.37.15.43.34.18.04.11.28.28.38.56.52,1.53,1.49,4.78.25,5.95h-.51c-.31-.57-3.08-3.19-3.42-1.85.92,2.26-.51,2.05-2.24,1.62l-3.24-1.36c-1.99-1.14-6.48.64-3.57,2.93,2.27,1.48,4.49,3.27.01,3.06-1.63.06-2.65,1.14-3.06,3.24-1.36,1.92-3.04,3.6-5.04,5.05-1.35,1.81-2.09,1.95-2.22.42-1-1.72-5.51,1.29-6.13,2.52,1.13-.69,5.56-1.85,3.41.6-2.26,1.81-5.43,4.4-5.47,7.48Z"></path><path class="st24" d="M168.91,167.22c-1.82-1.33-4.09-2.64-6.3-3.15-.4-.48-.61-.97-.63-1.47-3.15-1.78-6.14-3.26-9.84-3.1-.33-2.37-1.63-5.02-4.03-5.88-4-1.43-6.83.52-9.98,2.8-4.65-5.13-12.53-4.34-13.94,3.09-3.17.03-6.51.76-8.81,2.88-.09.43-.23.85-.42,1.26-2.43.65-5.52,2.09-7.56,3.57-1.31-.59-1.98-2.63-2.43-4.01-3.79-11.78,9.51-24.28,17.55-31.28s15.07-11.62,24.89-5.31c4.82,3.1,9.33,7.23,13.36,11.32,6.3,6.39,13.73,14.92,11.03,24.63-.44,1.59-1.34,4.11-2.9,4.66Z"></path><path class="st6" d="M115.39,162.4c.95-1.16,3.19-1.53,4.73-1.74,2.07-.28,3.93-.12,5.94.17.07-8.42,7.2-8.3,12.09-3.22,5.35-4.82,12.04-5.43,12.67,3.15,3.77-.68,7.84-.1,11.16,1.85.36.31.75.56,1.05.95-.43.18-.3.15-.42.52-.51-.12-1.04-.19-1.57-.22-.11,0-1.16-.13-.85.22,8.34,3.63,20.6,15.63,16.73,25.53-.57,1.45-1.84,3.39-3.4,3.84-.08-.09.23-2.31-.42-1.68-.05.05-.4,1.08-.6,1.4-1.08,1.76-2.49,3.57-4.5,4.31-2.61.96-2.02.87-4.16,2.35-1.22.84-2.65,1.52-4.13,1.75-.22.03-.53.19-.47-.16.64-.18,2.07-1.67,2.31-2.21.11-.26-.04-.39-.31-.31-.68.21-2.56,1.49-3.54,1.92-4.24,1.87-8.78,3.08-13.47,2.69-.3-.02-2.13-.34-2.21-.42-.36-.34.05-.36.32-.41,3.89-.72,7.65-1.01,10.28-4.41.44,1.71-.97,2.54-2,3.56,4.11-.84,6.56-3.85,6.93-7.97.31.09.4,1.1.41,1.36.05.98-.22,1.87-.1,2.83.81-.93,1.5-2.32,1.73-3.51.34-1.74.05-2.8-.16-4.46-.06-.62-.35-1.09-.87-1.42-1.41-1.24-5.22-4.75-.64-3.06,1.85,1.34,1.94,1.07.26-.79-.89-.58.98-1.63,1.38-1.54.31.58.69,1.1,1.13,1.56,1.03,2.1,1.4,2.59,2.07,4.97.1.35-.16.59.45.49.42-4.88-.58-10.11-3.27-14.25-.85-1.31-1.87-2.33-3.03-3.37,3.77.99,6.88,3.68,8.92,6.92.1-1-.61-2.61-1.07-3.54-1.25-2.53-3.15-4.51-5.47-6.07l-3-1.72,3.36.52,4.4,1.27c-2.16-3.12-5.96-4.56-9.65-4.72.02-.29.95-.37,1.18-.39,1.09-.1,2.18.13,3.23-.24-1.29-1.97-6.46-2.16-8.35-1.31-1.71.77.84,2.07,1.42,2.57.14,1.16-1.15.38-1.59-.26l-.15,1.32c-.09.56-.16.8-.78.82-1.05,1.39-3.22,1.66-4.84,1.37-2.58-.46-4.48-4.11-6.18-4.11s-4.15,3.78-6.35,4.16c-1.66.29-3.74-.12-4.67-1.63-1.07-.03-1.04-2.32-.63-2.94,0-.1.56-.73,0-1.16-.15-.12-1.9-.46-2.23-.49-2.15-.21-5.19,0-6.95,1.4-.25.2-.57.24-.48.68,1.51-.49,2.91-.58,4.45-.14.22.06.64.05.59.35-1.98.07-4.11.7-5.87,1.58-.6.3-3.79,2.33-3.99,2.73s.17.32.44.23c2.17-.68,4.4-1.28,6.69-1.39-1.88,1.43-3.88,2.49-5.45,4.3-1.73,1.99-2.86,4.4-3.57,6.92-.04.62.24.15.38-.04.73-.95,1.37-2.14,2.23-3.02,1.69-1.72,4.2-2.89,6.41-3.77-4.84,4.35-6.7,11.06-6.08,17.41l1.57-4.4c.24-.43.51-.82.74-1.26.7-.98,2.4-2.32,2.31-.24l-.68,2.02c.53-.49,3.77-2.2,3.41-.64-1,1.01-1.87,2.11-2.61,3.31l-.54.16c-1.28,2.8-1.19,6.03.95,8.39.28-.73-.11-1.44-.11-2.19,0-.21.13-1.3.42-1.37.65,4.29,3.36,7.04,7.56,7.97-1.13-1.03-2.79-2.24-2.41-3.98,1.4,2.17,3.79,3.22,6.19,3.88,1.52.42,3.15.48,4.62,1.05-5.94,1.57-12.97-.42-18.19-3.43-.19-.11-1.88-1.4-1.75-.98l2.31,3.04c-2-.44-3.69-1.34-5.35-2.52-.42-.3-.75-.9-1.18-1.13-.67-.37-1.35-.25-2.03-.49-2.27-.8-4.11-3.61-5.41-5.5l-.11,1.47c-.13.16-1.73-1.24-1.87-1.38-7.37-8.01,4.7-21.46,11.33-25.97.86-.58,2.94-1.47,3.56-2.11.75-.77-.5-.47-1.06-.32-.36-.79-.26-.98.42-1.26Z"></path><path class="st6" d="M168.91,167.22c4.47-5.33,3.41-12.85.17-18.53-3.84-6.71-18.57-21.17-25.78-23.74-9.62-3.43-17.57,4.54-24.03,10.58-8.26,7.73-19.82,19.89-11.85,31.68-1.67,1.21-3.04,2.75-4.51,4.19-8.73-10.17-3.59-21.88,4.3-30.53,4.77-5.23,11.75-11.69,17.33-16.03,13.5-10.5,22.22-4.92,33.26,4.92,6.61,5.89,17.3,15.13,20.15,23.5,2.14,6.3,1.29,14.41-3.89,18.98-1.57-1.8-3.21-3.61-5.14-5.03Z"></path><path class="st6" d="M161.7,114.28c-4.3,4.19-10.44,5.55-15.65,2.05-13.07-8.8-4.73-41.07,12.69-35.97,13.58,3.98,11.48,25.63,2.96,33.92Z"></path><path class="st6" d="M119.33,80.01c19.68-2.47,23.96,35.25,7.66,38.07-20.15,3.49-25.83-35.79-7.66-38.07Z"></path><path class="st6" d="M94.35,104.76c16.4-1.85,27.44,26.84,12.49,32.62-10.13,3.91-19.63-5.98-21.62-15.22-1.57-7.28.46-16.42,9.13-17.4Z"></path><path class="st6" d="M50.74,165.44c.25-2.51,1.67-5.2,2.94-7.34-1.31-.35-2.82-1.19-3.15-2.62.54.02,4.62-1.13,4.62-1.37,0-.44-1.16-.82-1.57-1.16-1.24-1.03-2.85-2.97-2.73-4.61l3.04.63c-1.94-2.87-3.56-6.36-4.14-9.81-.52-3.06-.38-4.99,3.19-5.3,2.73-.23,5.56.43,8.3.43l-1.96-1.08-.25-.59,11.44,3.56c-.96-1.61-.26-3.96.31-5.66.81,1.7,1.26,3.31,2.83,4.51.49.38,3.63,2.06,3.99,1.78-.82-1.71-.49-3.68.54-5.23.22-.32,1.68-1.98,1.98-2.22.16-.13.23-.13.42-.1l.09,1.48.95,1.87c-.05-2.32.26-5.36,1.21-7.5.1-.22.19-.53.47-.26.11.11.52,2.49.69,2.98,1.58,4.77,6.04,8.7,10.65,10.44.05.39-.41.15-.64.11-4.13-.63-7.93-2.82-10.59-5.99-.11,1.71.59,3.07,1.15,4.61-1.21-.53-2.36-1.14-3.42-1.92l-1.19-1.22c-.35,1.8-.24,3.39.63,5.03l-8.51-2.06c-.99.48.48,3.15.32,3.32l-4.14-2.26c-3.01-1.17-11.91-2.98-14.75-1.84-.58.23-.76.42-.85,1.04-.29,2.14.54,4.66,1.9,6.31-.63.22-1.11-.87-1.57-1.15-.07,2.34,2.08,5.76,3.78,7.34,1.36,1.26,1.75.83,3.04-.31-1.97-1.56-2.83-3.61-.42-5.25l-1.05.1c2.18-2.36,6.98-.45,8.61,1.89-1.58-.46-4.01-.37-4.2,1.68,1.67.59,3.49.46,4.82,1.79.12.57-.82-.06-1.17-.09-2.4-.18-4.23.69-5.96,2.29,1.2-.42,2.22-.6,3.47-.21.3.09.37-.12.31.42-3.17.12-5.3,2.76-7.98,3.99-.04.41.42.16.63.1,1.62-.43,3.03-1.16,4.83-.63-1.44,1.02-3.04,1.76-4.3,3.04-1.64,1.66-3.72,4.73-3.57,7.13,1.59-1.18,2.95-2.81,4.93-3.35-1.76,2.65-3.3,5.74-3.15,9.02,1.5.04,2.74-1.22,4.2-1.26-1.3,1.52-2.44,3.41-2.52,5.45l2.94-1.68c-1.06,2.75-2.71,5.6-5.14,7.34-.35-.17.11-.62.11-.73v-4.41c0-.08-.25-1.31-.63-.94-.08.08-.73,1.64-1,2.03-.13.19.03.39-.47.27-.36-3.37-.78-6.55.21-9.86-.28-.3-2.09,1.89-2.42,2.1-.64.05-.1-.23-.1-.31,0-1.19-.12-2.64,0-3.78Z"></path><path class="st3" d="M181.51,176.45c-.45-.14-.46-.55-.44-.94.06-1.12,2.41-4.07,3.27-4.93.46-.46,2.69-2.07,2.83-2.42.2-.5-.66-.31-.89-.26-1.12.22-2.4.88-3.51,1.21-.31-.41,1.6-2.21,1.99-2.52,1.52-1.24,5.72-3.12,5.46.21,1.57-2.49,4.93-3.94,6.31-6.49,1.1-2.03.44-3.23,3.35-3.57.42-.05,2.42.18,2.41-.32-.01-.69-6.13-3.07-2.62-5.35s5.87,1.68,9.34,1.26c.31-.29-1.24-1.66.44-2.2.91-.29,3.01,1.78,3.55,2.62-.43.4-1.07.57-1.41.9-.24.23-.1.86-.69.78l.63.21c.35.26-3.43,1.51-3.71,1.64-.85.39-1.8,1.1-2.69,1.5l2,.84c-4.74.46-9.03,3.65-12.07,7.13-.18.2-1.3,1.53-1.15,1.68,1.24-.42,2.6-.87,3.91-1.02.24-.03,1.13-.21,1.13.18-3.63,1.82-7.67,5.32-7.77,9.65-.37.08-.41-.11-.59-.35-.46-.6-.84-2.54-1.03-3.38-.12-.53.12-1.17-.37-1.52-.64-.13-5.23,4.05-6.2,4.71-.47.32-1.01.49-1.45.75Z"></path><path class="st2" d="M146.46,182.54c-.81-.44-2.16-.62-2.42-1.46-.2-.64-.17-2.54-.09-3.26.21-2.1,1.52-4.31,3.52-5.08.31-.12,2.02-.61,2.14-.48.38.39-1.28,1.42-1.05,2.1,6.71-2.15,9.84,5.77,12.17,10.49-.69,0-.87-1.06-1.37-1.26-.05-.02-.2.74-.95.42-.46.4,2.18,2.46,1.68,3.36-1.37-.67-2.57-1.9-4.2-1.89l3.03,2.94c.18.37.66.82.72,1.2.05.3-.19.44-.18.47l-.73-1.04c-.87.16-.25.78-.73,1.04-.76-2.14-3.96-3.47-6.08-3.89-1.66-.33-1.8.32-2.74-1.56l.41-.27c2,.78,3.52-.3,4.32-2.1,2.51,1.1,2.7.85.56-.76-1.44-5.31-8.56-5.77-7.7.57l-.31.46Z"></path><path class="st2" d="M115.6,184.63c1.87-3.58,4.09-8.26,7.83-10.11,1.61-.8,2.81-.68,4.55-.38l-1.05-1.89c4.24.53,5.99,4.08,5.67,8.08-.16,1.98-.7,1.26-2.11,1.99-.45.19-.69.15-.73-.13.82-6.18-5.94-6.45-7.65-1.11-2.01,1.9-1.93,2.18.22.84l.33.11c.73,1.85,2.32,2.47,4.22,2.56l.26.46c-.09.08-.11.44-.26.57-.7.61-2.11.37-2.94.53-2.44.48-4.23,2.02-5.93,3.72l-.52-.63c.79-1.72,1.71-2.41,2.94-3.77-1.48.09-2.59,1.15-3.78,1.89-.04-1.35,1.08-2.38.84-3.78l-1.89,1.05Z"></path><path class="st6" d="M135.54,194.07c-1.72-.37-3.28-.23-4.62-1.79-.05-.64.23-.1.31-.1h3.15c.72,0,2.72-1.27,2.94-2.09.66-2.46-1.79-1.62-2.81-3.29-2.97-4.86,8.41-6.49,7.95-1.23-.22,2.52-2.79,2.27-3.26,3.04-.67,1.11.34,2.55,1.29,3.12,1.66.99,3.71.65,5.53.45-.5.62-2.12,1.49-2.88,1.63-.97.18-1.83-.15-2.78.26h-.42c-.59-.44-1.63-1.14-2.37-.79-.67.72-1.35.99-2.04.79Z"></path><path class="st6" d="M95.66,169.53c-.22.35-.62.81-.95,1.05-2.71,1.96-9.19,1.87-11.86-.31,1.58.1,4.62.18,5.67-1.25,1.37-1.86-2.18-1.77-2.87-3.63-2.11-5.66,10.93-4.76,7.58.37-.83,1.27-3.21,1.37-2.21,3.07.79,1.32,3.38.71,4.63.72Z"></path><path class="st6" d="M82.85,160.09c-1.55-.21-2.01,1.53-3.17,2.4-1.3.98-2.68,1.35-4.17.43-.82-.5-1.37-1.98-1.95-2.25-.75-.35-1.86-.07-2.68-.16-.12-.64.2-.32.5-.44,2.17-.86,1.23-.7,2.35-2.28,1.54-2.17,4.16-3.23,6.49-1.48,1.49,1.12,1.09,2.33,1.68,3.14.22.3.85.16.94.63Z"></path><path class="st6" d="M127.14,185.05c-1.95-.25-3.18-.28-4.42-1.99-.2-.28-.18-.71-.2-.74-.18-.17-1.81,1.16-2.31,1.05-.21-1.25,1-1.71,1.56-2.53.39-.57.52-1.23.91-1.82,1.34-2.03,4.06-2.84,6.12-1.4,1.54,1.07,1.22,2.47,1.37,4.08.03.3-.27.37.32.63-.91.47-2.54,1.98-3.36,2.73Z"></path><path class="st6" d="M146.46,182.54c-1.56-5.4,4.62-7.68,7.44-3.13.39.62.48,1.33.99,1.95s1.73,1.02,1.65,2.02c-.94.09-1.79-.29-2.52-.84-.32,2.15-2.97,3.1-4.83,2.1-.84-.45-1.63-1.5-2.73-2.1Z"></path><path class="st24" d="M210.06,141.63c1.03,1.73,1.58,2.74,2.31,4.62.05.73-.13.29-.48.17-.78-.27-1.56-.58-2.37-.78-1.74-.45-6.16-.56-4.97-3.32.58-1.34,2.74-1.12,3.94-1.11l1.57.42Z"></path><path class="st6" d="M97.55,166.59c-5.15-7.15-1.51-16.97,4.2-22.66-.84,2.02-2.28,3.7-3.18,5.73-2.41,5.42-2.67,11.24-1.02,16.92Z"></path><path class="st5" d="M127.35,167.64l-4.62.63c.94-1.56,2.39-2.74,3.99-3.56,0,.13.19.43.21.72.08,1.05-.19,1.23.42,2.21Z"></path><path class="st18" d="M151.91,165.96c.8.68,1.61,1.36,2.1,2.31l-4.62-.42c.61-.8.3-1.82.63-2.73.47-.33,1.25,1.61,1.89.84Z"></path><path class="st17" d="M135.54,194.07c1.65-.5,1.59-1.91,3.47-1.05.27.12,1.41.66,1.36,1.05-1.92.82-2.11.77-4.26.37-.32-.06-.53-.36-.57-.37Z"></path><path class="st0" d="M179.78,108.54c7.68-.82,8.11,8.31,6.49,13.62-1.75,5.75-9.27,15.26-15.87,10.32-6.93-5.18.94-23.04,9.38-23.94Z"></path><path class="st12" d="M181.09,144.56c3.15,3.08,2.69,8.81,6.2,11.53,1.58,1.23,3.42,1.62,5.03.21,3.15-2.75,2.58-11.77,1.99-15.62l.22-1.48c4.07,5.29,2.76,25.49-7.7,19.24-4.49-2.68-5.43-9.12-5.73-13.89Z"></path><path class="st26" d="M219.53,147.65c.25.25-.03.38-.26.47-.27.11-4.2.73-4.36.57-.55-.56,1.28-1.15,1.62-1.21.48-.08,2.75-.08,2.99.16Z"></path><path class="st12" d="M115.39,162.4l-.41-.31c2.65-2,5.63-3.14,9.01-2.85,1.04-7.44,9.78-8.57,14.18-3.15,2.78-2.57,6.55-4.4,10.33-2.76,2.08.91,4.04,3.61,3.84,5.92,3.57-.42,7,1.06,9.66,3.36-3.8-1.19-7.54-2.41-11.54-1.26-.18-4.17-2.01-8.07-6.88-6.56-2.1.65-3.6,2.23-5.4,3.37-2.36-2.02-5.18-4.51-8.54-3.47-2.52.78-3.32,4.56-3.1,6.86-3.58-1.25-7.67-.56-11.12.84Z"></path><path class="st8" d="M141,158.2c1.08-.62,2.66-.92,3.91-.93.4,0,2.28.01,2.43.07.41.14.67.46.79.87.49,1.17.7,1.66.72,3.04.04,2.63-.51,4.14-3.51,3.62-.8-.14-4.29-2.03-4.31-2.74,0-.08.16-.51.2-.53.42-.26,2.84-.08,3.43-1.29,1.2-2.43-2.98-.44-3.68-.77-.94-.44-.49-.84,0-1.33Z"></path><path class="st17" d="M129.03,157.15l.55-.25c1.64.51,3.31.89,5,1.12.16-.39.35-.49.75-.25.56.49,1.64,1.42.42,2.01-.23.11-3.97-1.53-3.99-.23-.03,1.84,4.8,1.43,3.68,3.26-.29.46-3.19,1.95-3.83,2.05-3.94.61-4.48-5.33-2.57-7.71Z"></path><path class="st22" d="M164.51,197.85c2.52-3.43,3.24-7.51,3.78-11.64.08-.64-.29-1.66.42-1.99,1.36,4.98,1.52,11.52-4.2,13.63Z"></path><path class="st22" d="M111.4,197.43c-5.07-2.52-5.2-9.14-3.46-13.84.31,3.89.56,8.03,2.23,11.62.17.36,1.38,2.07,1.23,2.23Z"></path><path class="st1" d="M175,182.12c-1.19-1.36-2-3.06-3.15-4.5-1.53-1.92-3.46-3.58-5.03-5.46-.2-.24-.51-.34-.42-.73,4.11,2.22,8.11,5.75,8.6,10.7Z"></path><path class="st16" d="M109.72,171.84l-7.97,10.07c.9-4.35,3.77-8.39,7.97-10.07Z"></path><path class="st14" d="M130.29,166.17c3.09.43,4.37-2.21,6.61-2.31.65-.03-.35.58-.41.63-1.99,1.73-3.93,4.39-6.83,3.36-.71-.47-.78-.81-.2-1.02.03-.7.16-.74.83-.66Z"></path><path class="st1" d="M139.26,159.51c.78.73.75,3.22-.57,3.63-2.52.79-2.36-3.43-.91-3.86.39-.11,1.18-.05,1.48.23Z"></path><path class="st19" d="M172.27,189.88l-.73-5.66-1.78-5.87,1.23,1.81c1.39,3.03,2.82,6.47,1.28,9.73Z"></path><path class="st9" d="M148.13,158.2c-.63-.92-2.28-.14-3.26-.52l-3.88.52c1.82-1.82,5.4-3.46,7.02-.61.13.22.06.48.12.61Z"></path><path class="st21" d="M135.33,157.78c-.33.12-.34.65-.72.64-1.94-.05-3.75-.84-5.57-1.27,1.66-2.07,4.63-.82,6.3.63Z"></path><path class="st27" d="M146.25,166.17c.87,1.29.78,1.9-.26,1.83l-1.62-.15c-1.63-.67-2.9-2.45-3.99-3.77,2.05.46,3.56,2.53,5.88,2.1Z"></path><path class="st15" d="M104.26,189.67c-.35-.12-.57-1.07-.61-1.38-.33-2.89.79-6.59,2.5-8.9-.83,3.39-1.74,6.76-1.89,10.28Z"></path><path class="st25" d="M146.25,166.17c.72-.21,1.57-.4,2.31-.63.05,2.34-2.22,3.12-4.2,2.31h2.1c.18-.17-.37-1.37-.84-1.26-.06-.21.49-.37.63-.42Z"></path><path class="st11" d="M130.29,166.17c-.59.18-.31.75-.48.99-.07.1-.32.04-.35.07-.42.5.8.35.2.62-1.29-.46-1.3-1.47-1.26-2.73.59.44,1.11.94,1.89,1.05Z"></path><path class="st2" d="M155.23,84.21c6.73-.48,8.37,8.38,8.03,13.48-.43,6.43-4.8,16.64-12.69,15.6-5.83-.77-6.58-10.24-5.97-14.75.72-5.37,4.43-13.9,10.64-14.34Z"></path><path class="st2" d="M120.38,84.42c12.12-1.47,16.34,24.63,7.02,28.62-7.47,3.2-12.98-8.22-13.69-14.11-.58-4.81.64-13.78,6.67-14.52Z"></path><path class="st2" d="M95.62,108.54c10.53-.74,18.91,21.61,9.06,24.79-7.31,2.36-13.45-6.71-14.59-12.89-.83-4.47-.24-11.5,5.53-11.91Z"></path><path class="st4" d="M136.81,183.81c.51-.74,3.97-.47,3.76.51s-4.62.74-3.76-.51Z"></path><path class="st23" d="M92.3,163.86c-.63.31-4.2.49-3.98-.51.29-1.34,4.79-.66,3.98.51Z"></path><path class="st10" d="M77.55,156.98c1.91-.55,2.22,2.4.18,2.06-1.03-.17-1-1.82-.18-2.06Z"></path><path class="st20" d="M127.08,178.6c1.46-.07,1.5,2.66-.04,2.66s-1.96-2.56.04-2.66Z"></path><path class="st20" d="M148.39,180.81c-.83-.83-.17-2.49,1.48-2,1.96.58-.17,3.31-1.48,2Z"></path></svg>